millimetreA light 01.ufo
<glyph name="exclam" format="1">
  <advance width="200"/>
  <unicode hex="0021"/>
  <outline>
    <contour>
      <point x="85" y="200" type="line"/>
      <point x="115" y="200" type="line"/>
      <point x="125" y="500" type="line"/>
      <point x="125" y="700" type="line"/>
      <point x="75" y="700" type="line"/>
      <point x="75" y="500" type="line"/>
    </contour>
    <contour>
      <point x="70" y="0" type="line"/>
      <point x="130" y="0" type="line"/>
      <point x="130" y="60" type="line"/>
      <point x="70" y="60" type="line"/>
    </contour>
  </outline>
</glyph>
<glyph name="numbersign" format="1">
  <advance width="400"/>
  <unicode hex="0023"/>
  <outline>
    <contour>
      <point x="265" y="245" type="line"/>
      <point x="105" y="245" type="line"/>
      <point x="135" y="455" type="line"/>
      <point x="295" y="455" type="line"/>
    </contour>
    <contour>
      <point x="225" y="0" type="line"/>
      <point x="275" y="0" type="line"/>
      <point x="305" y="200" type="line"/>
      <point x="400" y="200" type="line"/>
      <point x="400" y="250" type="line"/>
      <point x="310" y="250" type="line"/>
      <point x="340" y="450" type="line"/>
      <point x="400" y="450" type="line"/>
      <point x="400" y="500" type="line"/>
      <point x="340" y="500" type="line"/>
      <point x="360" y="599" type="line"/>
      <point x="375" y="700" type="line"/>
      <point x="325" y="700" type="line"/>
      <point x="295" y="500" type="line"/>
      <point x="140" y="500" type="line"/>
      <point x="160" y="600" type="line"/>
      <point x="175" y="700" type="line"/>
      <point x="125" y="700" type="line"/>
      <point x="95" y="500" type="line"/>
      <point x="0" y="500" type="line"/>
      <point x="0" y="450" type="line"/>
      <point x="90" y="450" type="line"/>
      <point x="60" y="250" type="line"/>
      <point x="0" y="250" type="line"/>
      <point x="0" y="200" type="line"/>
      <point x="60" y="200" type="line"/>
      <point x="40" y="100" type="line"/>
      <point x="25" y="0" type="line"/>
      <point x="75" y="0" type="line"/>
      <point x="105" y="200" type="line"/>
      <point x="260" y="200" type="line"/>
      <point x="240" y="100" type="line"/>
    </contour>
  </outline>
</glyph>
<glyph name="percent" format="1">
  <advance width="800"/>
  <unicode hex="0025"/>
  <outline>
    <contour>
      <point x="100" y="0" type="line"/>
      <point x="165" y="0" type="line"/>
      <point x="700" y="700" type="line"/>
      <point x="635" y="700" type="line"/>
    </contour>
    <component base="zero.sup"/>
    <component base="zero.sup" xOffset="400" yOffset="-400"/>
  </outline>
</glyph>
<glyph name="hyphen" format="1">
  <advance width="200"/>
  <unicode hex="002D"/>
  <outline>
    <contour>
      <point x="0" y="250" type="line"/>
      <point x="200" y="250" type="line"/>
      <point x="200" y="300" type="line"/>
      <point x="0" y="300" type="line"/>
    </contour>
  </outline>
</glyph>
<glyph name="period" format="1">
  <advance width="200"/>
  <unicode hex="002E"/>
  <outline>
    <contour>
      <point x="70" y="0" type="line"/>
      <point x="130" y="0" type="line"/>
      <point x="130" y="60" type="line"/>
      <point x="70" y="60" type="line"/>
    </contour>
  </outline>
</glyph>
<glyph name="slash" format="1">
  <advance width="200"/>
  <unicode hex="002F"/>
  <outline>
    <contour>
      <point x="0" y="0" type="line"/>
      <point x="50" y="0" type="line"/>
      <point x="200" y="700" type="line"/>
      <point x="150" y="700" type="line"/>
    </contour>
  </outline>
</glyph>
<glyph name="one" format="1">
  <advance width="200"/>
  <unicode hex="0031"/>
  <outline>
    <contour>
      <point x="75" y="0" type="line"/>
      <point x="125" y="0" type="line"/>
      <point x="125" y="700" type="line"/>
      <point x="75" y="700" type="line"/>
    </contour>
    <contour>
      <point x="90" y="700" type="line"/>
      <point x="40" y="700" type="line"/>
      <point x="30" y="650" type="line"/>
      <point x="100" y="650" type="line"/>
    </contour>
  </outline>
</glyph>
<glyph name="two" format="1">
  <advance width="600"/>
  <unicode hex="0032"/>
  <outline>
    <contour>
      <point x="125" y="50" type="line"/>
      <point x="125" y="130" type="line" smooth="yes"/>
      <point x="125" y="340"/>
      <point x="525" y="265"/>
      <point x="525" y="515" type="curve" smooth="yes"/>
      <point x="525" y="645"/>
      <point x="475" y="700"/>
      <point x="300" y="700" type="curve" smooth="yes"/>
      <point x="270" y="700" type="line" smooth="yes"/>
      <point x="145" y="700"/>
      <point x="75" y="630"/>
      <point x="75" y="480" type="curve"/>
      <point x="75" y="425" type="line"/>
      <point x="125" y="425" type="line"/>
      <point x="125" y="460" type="line" smooth="yes"/>
      <point x="125" y="625"/>
      <point x="172" y="650"/>
      <point x="300" y="650" type="curve"/>
      <point x="452" y="650"/>
      <point x="475" y="600"/>
      <point x="475" y="520" type="curve" smooth="yes"/>
      <point x="475" y="307"/>
      <point x="75" y="394"/>
      <point x="75" y="130" type="curve" smooth="yes"/>
      <point x="75" y="0" type="line"/>
      <point x="525" y="0" type="line"/>
      <point x="525" y="225" type="line"/>
      <point x="475" y="225" type="line"/>
      <point x="475" y="50" type="line"/>
    </contour>
  </outline>
</glyph>
<glyph name="seven" format="1">
  <advance width="600"/>
  <unicode hex="0037"/>
  <outline>
    <contour>
      <point x="50" y="650" type="line"/>
      <point x="515" y="650" type="line"/>
      <point x="555" y="670" type="line"/>
      <point x="555" y="700" type="line"/>
      <point x="50" y="700" type="line"/>
    </contour>
    <contour>
      <point x="100" y="225" type="line"/>
      <point x="500" y="225" type="line"/>
      <point x="500" y="275" type="line"/>
      <point x="100" y="275" type="line"/>
    </contour>
    <contour>
      <point x="325" y="275" type="line"/>
      <point x="325" y="431"/>
      <point x="370" y="515"/>
      <point x="555" y="670" type="curve"/>
      <point x="510" y="685" type="line"/>
      <point x="335" y="551"/>
      <point x="280" y="450"/>
      <point x="275" y="275" type="curve"/>
    </contour>
    <contour>
      <point x="325" y="0" type="line"/>
      <point x="325" y="250" type="line"/>
      <point x="275" y="250" type="line"/>
      <point x="275" y="0" type="line"/>
    </contour>
  </outline>
</glyph>
<glyph name="eight" format="1">
  <advance width="600"/>
  <unicode hex="0038"/>
  <outline>
    <contour>
      <point x="270" y="0" type="curve" smooth="yes"/>
      <point x="300" y="0" type="line"/>
      <point x="300" y="50" type="line"/>
      <point x="148" y="50"/>
      <point x="125" y="75"/>
      <point x="125" y="240" type="curve" smooth="yes"/>
      <point x="125" y="250" type="line"/>
      <point x="75" y="250" type="line"/>
      <point x="75" y="220" type="line"/>
      <point x="75" y="60"/>
      <point x="135" y="0"/>
    </contour>
    <contour>
      <point x="375" y="650" type="line" smooth="yes"/>
      <point x="455" y="650"/>
      <point x="475" y="614"/>
      <point x="475" y="560" type="curve"/>
      <point x="475" y="509"/>
      <point x="460" y="475"/>
      <point x="400" y="475" type="curve"/>
      <point x="200" y="475" type="line" smooth="yes"/>
      <point x="140" y="475"/>
      <point x="125" y="509"/>
      <point x="125" y="560" type="curve"/>
      <point x="125" y="614"/>
      <point x="145" y="650"/>
      <point x="225" y="650" type="curve"/>
    </contour>
    <contour>
      <point x="300" y="425" type="curve"/>
      <point x="452" y="425"/>
      <point x="475" y="400"/>
      <point x="475" y="260" type="curve" smooth="yes"/>
      <point x="475" y="250" type="line"/>
      <point x="525" y="250" type="line"/>
      <point x="525" y="280" type="line"/>
      <point x="525" y="352"/>
      <point x="510" y="415"/>
      <point x="450" y="440" type="curve"/>
      <point x="505" y="460"/>
      <point x="525" y="510"/>
      <point x="525" y="560" type="curve"/>
      <point x="525" y="640"/>
      <point x="470" y="700"/>
      <point x="375" y="700" type="curve" smooth="yes"/>
      <point x="225" y="700" type="line" smooth="yes"/>
      <point x="130" y="700"/>
      <point x="75" y="640"/>
      <point x="75" y="560" type="curve"/>
      <point x="75" y="510"/>
      <point x="95" y="460"/>
      <point x="150" y="440" type="curve"/>
      <point x="90" y="415"/>
      <point x="75" y="352"/>
      <point x="75" y="280" type="curve"/>
      <point x="75" y="250" type="line"/>
      <point x="125" y="250" type="line"/>
      <point x="125" y="260" type="line" smooth="yes"/>
      <point x="125" y="400"/>
      <point x="148" y="425"/>
    </contour>
    <contour>
      <point x="330" y="0" type="line" smooth="yes"/>
      <point x="465" y="0"/>
      <point x="525" y="60"/>
      <point x="525" y="220" type="curve"/>
      <point x="525" y="250" type="line"/>
      <point x="475" y="250" type="line"/>
      <point x="475" y="240" type="line" smooth="yes"/>
      <point x="475" y="75"/>
      <point x="452" y="50"/>
      <point x="300" y="50" type="curve"/>
      <point x="300" y="0" type="line"/>
    </contour>
  </outline>
</glyph>
<glyph name="equal" format="1">
  <advance width="600"/>
  <unicode hex="003D"/>
  <outline>
    <contour>
      <point x="550" y="200" type="line"/>
      <point x="550" y="250" type="line"/>
      <point x="50" y="250" type="line"/>
      <point x="50" y="200" type="line"/>
    </contour>
    <contour>
      <point x="550" y="450" type="line"/>
      <point x="550" y="500" type="line"/>
      <point x="50" y="500" type="line"/>
      <point x="50" y="450" type="line"/>
    </contour>
  </outline>
</glyph>
<glyph name="E" format="1">
  <advance width="600"/>
  <unicode hex="0045"/>
  <outline>
    <contour>
      <point x="75" y="0" type="line"/>
      <point x="125" y="0" type="line"/>
      <point x="125" y="700" type="line"/>
      <point x="75" y="700" type="line"/>
    </contour>
    <contour>
      <point x="125" y="0" type="line"/>
      <point x="525" y="0" type="line"/>
      <point x="525" y="50" type="line"/>
      <point x="125" y="50" type="line"/>
    </contour>
    <contour>
      <point x="125" y="650" type="line"/>
      <point x="525" y="650" type="line"/>
      <point x="525" y="700" type="line"/>
      <point x="125" y="700" type="line"/>
    </contour>
    <contour>
      <point x="125" y="250" type="line"/>
      <point x="475" y="250" type="line"/>
      <point x="475" y="300" type="line"/>
      <point x="125" y="300" type="line"/>
    </contour>
    <contour>
      <point x="315" y="650" type="move" name="top"/>
    </contour>
  </outline>
</glyph>
<glyph name="F" format="1">
  <advance width="600"/>
  <unicode hex="0046"/>
  <outline>
    <contour>
      <point x="75" y="0" type="line"/>
      <point x="125" y="0" type="line"/>
      <point x="125" y="700" type="line"/>
      <point x="75" y="700" type="line"/>
    </contour>
    <contour>
      <point x="125" y="650" type="line"/>
      <point x="550" y="650" type="line"/>
      <point x="550" y="700" type="line"/>
      <point x="125" y="700" type="line"/>
    </contour>
    <contour>
      <point x="125" y="250" type="line"/>
      <point x="500" y="250" type="line"/>
      <point x="500" y="300" type="line"/>
      <point x="125" y="300" type="line"/>
    </contour>
    <contour>
      <point x="315" y="650" type="move" name="top"/>
    </contour>
  </outline>
</glyph>
<glyph name="H" format="1">
  <advance width="600"/>
  <unicode hex="0048"/>
  <outline>
    <contour>
      <point x="75" y="0" type="line"/>
      <point x="125" y="0" type="line"/>
      <point x="125" y="700" type="line"/>
      <point x="75" y="700" type="line"/>
    </contour>
    <contour>
      <point x="100" y="400" type="line"/>
      <point x="500" y="400" type="line"/>
      <point x="500" y="450" type="line"/>
      <point x="100" y="450" type="line"/>
    </contour>
    <contour>
      <point x="475" y="0" type="line"/>
      <point x="525" y="0" type="line"/>
      <point x="525" y="700" type="line"/>
      <point x="475" y="700" type="line"/>
    </contour>
  </outline>
</glyph>
<glyph name="L" format="1">
  <advance width="400"/>
  <unicode hex="004C"/>
  <outline>
    <contour>
      <point x="50" y="700" type="line"/>
      <point x="50" y="0" type="line"/>
      <point x="100" y="0" type="line"/>
      <point x="100" y="700" type="line"/>
    </contour>
    <contour>
      <point x="100" y="50" type="line"/>
      <point x="100" y="0" type="line"/>
      <point x="375" y="0" type="line"/>
      <point x="375" y="50" type="line"/>
    </contour>
  </outline>
</glyph>
<glyph name="N" format="1">
  <advance width="600"/>
  <unicode hex="004E"/>
  <outline>
    <contour>
      <point x="75" y="0" type="line"/>
      <point x="125" y="0" type="line"/>
      <point x="125" y="700" type="line"/>
      <point x="75" y="700" type="line"/>
    </contour>
    <contour>
      <point x="475" y="0" type="line"/>
      <point x="495" y="65" type="line"/>
      <point x="125" y="700" type="line"/>
      <point x="105" y="635" type="line"/>
    </contour>
    <contour>
      <point x="475" y="0" type="line"/>
      <point x="525" y="0" type="line"/>
      <point x="525" y="700" type="line"/>
      <point x="475" y="700" type="line"/>
    </contour>
    <contour>
      <point x="300" y="650" type="move" name="top"/>
    </contour>
  </outline>
</glyph>
<glyph name="W" format="1">
  <advance width="600"/>
  <unicode hex="0057"/>
  <outline>
    <contour>
      <point x="190" y="0" type="curve"/>
      <point x="205" y="60" type="line"/>
      <point x="145" y="175"/>
      <point x="125" y="271"/>
      <point x="125" y="400" type="curve" smooth="yes"/>
      <point x="125" y="700" type="line"/>
      <point x="75" y="700" type="line"/>
      <point x="75" y="400" type="line" smooth="yes"/>
      <point x="75" y="257"/>
      <point x="116" y="113"/>
    </contour>
    <contour>
      <point x="275" y="700" type="line"/>
      <point x="275" y="350" type="line" smooth="yes"/>
      <point x="275" y="241"/>
      <point x="260" y="175"/>
      <point x="195" y="60" type="curve"/>
      <point x="190" y="0" type="line"/>
      <point x="210" y="0" type="line"/>
      <point x="252" y="68"/>
      <point x="284" y="127"/>
      <point x="300" y="195" type="curve"/>
      <point x="316" y="127"/>
      <point x="348" y="68"/>
      <point x="390" y="0" type="curve"/>
      <point x="410" y="0" type="line"/>
      <point x="405" y="60" type="line"/>
      <point x="340" y="175"/>
      <point x="325" y="241"/>
      <point x="325" y="350" type="curve" smooth="yes"/>
      <point x="325" y="700" type="line"/>
    </contour>
    <contour>
      <point x="410" y="0" type="line"/>
      <point x="484" y="113"/>
      <point x="525" y="257"/>
      <point x="525" y="400" type="curve" smooth="yes"/>
      <point x="525" y="700" type="line"/>
      <point x="475" y="700" type="line"/>
      <point x="475" y="400" type="line" smooth="yes"/>
      <point x="475" y="271"/>
      <point x="455" y="175"/>
      <point x="395" y="60" type="curve"/>
    </contour>
  </outline>
</glyph>
<glyph name="X" format="1">
  <advance width="600"/>
  <unicode hex="0058"/>
  <outline>
    <contour>
      <point x="305" y="330" type="curve"/>
      <point x="345" y="360" type="line"/>
      <point x="184" y="441"/>
      <point x="125" y="506"/>
      <point x="125" y="600" type="curve" smooth="yes"/>
      <point x="125" y="700" type="line"/>
      <point x="75" y="700" type="line"/>
      <point x="75" y="600" type="line" smooth="yes"/>
      <point x="75" y="504"/>
      <point x="136" y="400"/>
    </contour>
    <contour>
      <point x="295" y="330" type="line"/>
      <point x="464" y="400"/>
      <point x="525" y="504"/>
      <point x="525" y="600" type="curve" smooth="yes"/>
      <point x="525" y="700" type="line"/>
      <point x="475" y="700" type="line"/>
      <point x="475" y="600" type="line" smooth="yes"/>
      <point x="475" y="506"/>
      <point x="416" y="441"/>
      <point x="255" y="360" type="curve"/>
    </contour>
    <contour>
      <point x="305" y="380" type="line"/>
      <point x="136" y="310"/>
      <point x="75" y="197"/>
      <point x="75" y="100" type="curve" smooth="yes"/>
      <point x="75" y="0" type="line"/>
      <point x="125" y="0" type="line"/>
      <point x="125" y="100" type="line" smooth="yes"/>
      <point x="125" y="194"/>
      <point x="184" y="269"/>
      <point x="345" y="350" type="curve"/>
    </contour>
    <contour>
      <point x="295" y="380" type="curve"/>
      <point x="255" y="350" type="line"/>
      <point x="415" y="270"/>
      <point x="475" y="195"/>
      <point x="475" y="100" type="curve" smooth="yes"/>
      <point x="475" y="0" type="line"/>
      <point x="525" y="0" type="line"/>
      <point x="525" y="100" type="line" smooth="yes"/>
      <point x="525" y="195"/>
      <point x="465" y="310"/>
    </contour>
  </outline>
</glyph>
<glyph name="Z" format="1">
  <advance width="600"/>
  <unicode hex="005A"/>
  <outline>
    <contour>
      <point x="50" y="650" type="line"/>
      <point x="510" y="650" type="line"/>
      <point x="550" y="665" type="line"/>
      <point x="550" y="700" type="line"/>
      <point x="50" y="700" type="line"/>
    </contour>
    <contour>
      <point x="50" y="0" type="line"/>
      <point x="550" y="0" type="line"/>
      <point x="550" y="50" type="line"/>
      <point x="90" y="50" type="line"/>
      <point x="50" y="35" type="line"/>
    </contour>
    <contour>
      <point x="85" y="0" type="line"/>
      <point x="550" y="665" type="line"/>
      <point x="500" y="680" type="line"/>
      <point x="50" y="35" type="line"/>
    </contour>
    <contour>
      <point x="300" y="650" type="move" name="top"/>
    </contour>
  </outline>
</glyph>
<glyph name="backslash" format="1">
  <advance width="200"/>
  <unicode hex="005C"/>
  <outline>
    <contour>
      <point x="200" y="0" type="line"/>
      <point x="50" y="700" type="line"/>
      <point x="0" y="700" type="line"/>
      <point x="150" y="0" type="line"/>
    </contour>
  </outline>
</glyph>
<glyph name="underscore" format="1">
  <advance width="400"/>
  <unicode hex="005F"/>
  <outline>
    <contour>
      <point x="0" y="-150" type="line"/>
      <point x="0" y="-200" type="line"/>
      <point x="400" y="-200" type="line"/>
      <point x="400" y="-150" type="line"/>
    </contour>
  </outline>
</glyph>
<glyph name="grave" format="1">
  <advance width="200"/>
  <unicode hex="0060"/>
  <outline>
    <contour>
      <point x="140" y="550" type="line"/>
      <point x="95" y="700" type="line"/>
      <point x="45" y="700" type="line"/>
      <point x="45" y="665" type="line"/>
      <point x="110" y="550" type="line"/>
    </contour>
    <contour>
      <point x="122" y="500" type="move" name="_top"/>
    </contour>
  </outline>
</glyph>
<glyph name="m" format="1">
  <advance width="600"/>
  <unicode hex="006D"/>
  <outline>
    <contour>
      <point x="75" y="0" type="line"/>
      <point x="125" y="0" type="line"/>
      <point x="125" y="420" type="line"/>
      <point x="120" y="460" type="line"/>
      <point x="115" y="500" type="line"/>
      <point x="75" y="500" type="line"/>
    </contour>
    <contour>
      <point x="120" y="460" type="curve"/>
      <point x="125" y="360" type="line"/>
      <point x="125" y="440"/>
      <point x="155" y="460"/>
      <point x="200" y="460" type="curve" smooth="yes"/>
      <point x="245" y="460"/>
      <point x="275" y="440"/>
      <point x="275" y="360" type="curve"/>
      <point x="275" y="0" type="line"/>
      <point x="325" y="0" type="line"/>
      <point x="325" y="390" type="line"/>
      <point x="305" y="450" type="line"/>
      <point x="290" y="485"/>
      <point x="255" y="510"/>
      <point x="210" y="510" type="curve" smooth="yes"/>
      <point x="160" y="510"/>
      <point x="132" y="484"/>
    </contour>
    <contour>
      <point x="300" y="450" type="curve"/>
      <point x="325" y="360" type="line"/>
      <point x="325" y="440"/>
      <point x="355" y="460"/>
      <point x="400" y="460" type="curve" smooth="yes"/>
      <point x="445" y="460"/>
      <point x="475" y="440"/>
      <point x="475" y="360" type="curve"/>
      <point x="475" y="0" type="line"/>
      <point x="525" y="0" type="line"/>
      <point x="525" y="360" type="line" smooth="yes"/>
      <point x="525" y="465"/>
      <point x="476" y="510"/>
      <point x="410" y="510" type="curve" smooth="yes"/>
      <point x="355" y="510"/>
      <point x="320" y="490"/>
    </contour>
  </outline>
</glyph>
<glyph name="n" format="1">
  <advance width="600"/>
  <unicode hex="006E"/>
  <outline>
    <contour>
      <point x="75" y="0" type="line"/>
      <point x="125" y="0" type="line"/>
      <point x="125" y="381" type="line"/>
      <point x="120" y="420" type="line"/>
      <point x="110" y="500" type="line"/>
      <point x="75" y="500" type="line"/>
    </contour>
    <contour>
      <point x="120" y="420" type="curve"/>
      <point x="125" y="381" type="line"/>
      <point x="125" y="260" type="line"/>
      <point x="125" y="393"/>
      <point x="150" y="460"/>
      <point x="300" y="460" type="curve" smooth="yes"/>
      <point x="430" y="460"/>
      <point x="475" y="420"/>
      <point x="475" y="260" type="curve"/>
      <point x="475" y="0" type="line"/>
      <point x="525" y="0" type="line"/>
      <point x="525" y="290" type="line"/>
      <point x="525" y="440"/>
      <point x="465" y="510"/>
      <point x="315" y="510" type="curve"/>
      <point x="195" y="510"/>
      <point x="130" y="470"/>
    </contour>
    <contour>
      <point x="300" y="500" type="move" name="top"/>
    </contour>
  </outline>
</glyph>
<glyph name="o" format="1">
  <advance width="600"/>
  <unicode hex="006F"/>
  <outline>
    <contour>
      <point x="300" y="460" type="curve"/>
      <point x="457" y="460"/>
      <point x="480" y="405"/>
      <point x="480" y="290" type="curve" smooth="yes"/>
      <point x="480" y="250" type="line"/>
      <point x="530" y="250" type="line"/>
      <point x="530" y="290" type="line"/>
      <point x="530" y="435"/>
      <point x="480" y="510"/>
      <point x="300" y="510" type="curve"/>
      <point x="120" y="510"/>
      <point x="70" y="435"/>
      <point x="70" y="290" type="curve"/>
      <point x="70" y="250" type="line"/>
      <point x="120" y="250" type="line"/>
      <point x="120" y="290" type="line" smooth="yes"/>
      <point x="120" y="405"/>
      <point x="143" y="460"/>
    </contour>
    <contour>
      <point x="300" y="40" type="curve"/>
      <point x="143" y="40"/>
      <point x="120" y="95"/>
      <point x="120" y="210" type="curve" smooth="yes"/>
      <point x="120" y="250" type="line"/>
      <point x="70" y="250" type="line"/>
      <point x="70" y="210" type="line"/>
      <point x="70" y="60"/>
      <point x="120" y="-10"/>
      <point x="300" y="-10" type="curve"/>
      <point x="480" y="-10"/>
      <point x="530" y="60"/>
      <point x="530" y="210" type="curve"/>
      <point x="530" y="250" type="line"/>
      <point x="480" y="250" type="line"/>
      <point x="480" y="210" type="line" smooth="yes"/>
      <point x="480" y="95"/>
      <point x="457" y="40"/>
    </contour>
    <contour>
      <point x="300" y="500" type="move" name="top"/>
    </contour>
  </outline>
</glyph>
<glyph name="r" format="1">
  <advance width="400"/>
  <unicode hex="0072"/>
  <outline>
    <contour>
      <point x="75" y="0" type="line"/>
      <point x="125" y="0" type="line"/>
      <point x="125" y="325" type="line"/>
      <point x="120" y="375" type="line"/>
      <point x="110" y="500" type="line"/>
      <point x="75" y="500" type="line"/>
    </contour>
    <contour>
      <point x="120" y="375" type="curve"/>
      <point x="125" y="325" type="line"/>
      <point x="125" y="205" type="line"/>
      <point x="125" y="368"/>
      <point x="165" y="450"/>
      <point x="340" y="450" type="curve" smooth="yes"/>
      <point x="425" y="450" type="line"/>
      <point x="425" y="500" type="line"/>
      <point x="355" y="500" type="line" smooth="yes"/>
      <point x="211" y="500"/>
      <point x="139" y="463"/>
    </contour>
    <contour>
      <point x="300" y="500" type="move" name="top"/>
    </contour>
  </outline>
</glyph>
<glyph name="s" format="1">
  <advance width="600"/>
  <unicode hex="0073"/>
  <outline>
    <contour>
      <point x="535" y="125" type="curve" smooth="yes"/>
      <point x="535" y="220"/>
      <point x="485" y="255"/>
      <point x="300" y="275" type="curve" smooth="yes"/>
      <point x="182" y="289"/>
      <point x="125" y="310"/>
      <point x="125" y="375" type="curve" smooth="yes"/>
      <point x="125" y="435"/>
      <point x="163" y="460"/>
      <point x="300" y="460" type="curve" smooth="yes"/>
      <point x="445" y="460"/>
      <point x="475" y="433"/>
      <point x="475" y="350" type="curve"/>
      <point x="475" y="330" type="line"/>
      <point x="525" y="330" type="line"/>
      <point x="525" y="360" type="line"/>
      <point x="525" y="456"/>
      <point x="470" y="510"/>
      <point x="300" y="510" type="curve" smooth="yes"/>
      <point x="137" y="510"/>
      <point x="75" y="460"/>
      <point x="75" y="375" type="curve" smooth="yes"/>
      <point x="75" y="280"/>
      <point x="123" y="244"/>
      <point x="300" y="225" type="curve" smooth="yes"/>
      <point x="425" y="210"/>
      <point x="485" y="190"/>
      <point x="485" y="125" type="curve" smooth="yes"/>
      <point x="485" y="65"/>
      <point x="445" y="40"/>
      <point x="300" y="40" type="curve" smooth="yes"/>
      <point x="155" y="40"/>
      <point x="125" y="68"/>
      <point x="125" y="150" type="curve"/>
      <point x="125" y="170" type="line"/>
      <point x="75" y="170" type="line"/>
      <point x="75" y="140" type="line"/>
      <point x="75" y="44"/>
      <point x="130" y="-10"/>
      <point x="300" y="-10" type="curve" smooth="yes"/>
      <point x="470" y="-10"/>
      <point x="535" y="40"/>
    </contour>
  </outline>
</glyph>
<glyph name="v" format="1">
  <advance width="600"/>
  <unicode hex="0076"/>
  <outline>
    <contour>
      <point x="290" y="0" type="curve"/>
      <point x="315" y="40" type="line"/>
      <point x="166" y="145"/>
      <point x="125" y="257"/>
      <point x="125" y="400" type="curve" smooth="yes"/>
      <point x="125" y="500" type="line"/>
      <point x="75" y="500" type="line"/>
      <point x="75" y="400" type="line" smooth="yes"/>
      <point x="75" y="250"/>
      <point x="122" y="107"/>
    </contour>
    <contour>
      <point x="310" y="0" type="line"/>
      <point x="479" y="105"/>
      <point x="525" y="250"/>
      <point x="525" y="400" type="curve" smooth="yes"/>
      <point x="525" y="500" type="line"/>
      <point x="475" y="500" type="line"/>
      <point x="475" y="400" type="line" smooth="yes"/>
      <point x="475" y="257"/>
      <point x="434" y="145"/>
      <point x="285" y="40" type="curve"/>
      <point x="290" y="0" type="line"/>
    </contour>
  </outline>
</glyph>
<glyph name="x" format="1">
  <advance width="600"/>
  <unicode hex="0078"/>
  <outline>
    <contour>
      <point x="305" y="230" type="curve"/>
      <point x="345" y="260" type="line"/>
      <point x="183" y="321"/>
      <point x="125" y="370"/>
      <point x="125" y="455" type="curve" smooth="yes"/>
      <point x="125" y="500" type="line"/>
      <point x="75" y="500" type="line"/>
      <point x="75" y="455" type="line" smooth="yes"/>
      <point x="75" y="365"/>
      <point x="135" y="280"/>
    </contour>
    <contour>
      <point x="295" y="230" type="line"/>
      <point x="465" y="280"/>
      <point x="525" y="365"/>
      <point x="525" y="455" type="curve" smooth="yes"/>
      <point x="525" y="500" type="line"/>
      <point x="475" y="500" type="line"/>
      <point x="475" y="455" type="line" smooth="yes"/>
      <point x="475" y="370"/>
      <point x="417" y="321"/>
      <point x="255" y="260" type="curve"/>
    </contour>
    <contour>
      <point x="305" y="280" type="line"/>
      <point x="135" y="230"/>
      <point x="75" y="135"/>
      <point x="75" y="45" type="curve" smooth="yes"/>
      <point x="75" y="0" type="line"/>
      <point x="125" y="0" type="line"/>
      <point x="125" y="45" type="line" smooth="yes"/>
      <point x="125" y="130"/>
      <point x="183" y="189"/>
      <point x="345" y="250" type="curve"/>
    </contour>
    <contour>
      <point x="295" y="280" type="curve"/>
      <point x="255" y="250" type="line"/>
      <point x="417" y="189"/>
      <point x="475" y="130"/>
      <point x="475" y="45" type="curve" smooth="yes"/>
      <point x="475" y="0" type="line"/>
      <point x="525" y="0" type="line"/>
      <point x="525" y="45" type="line" smooth="yes"/>
      <point x="525" y="135"/>
      <point x="465" y="230"/>
    </contour>
  </outline>
</glyph>
<glyph name="braceleft" format="1">
  <advance width="200"/>
  <unicode hex="007B"/>
  <outline>
    <contour>
      <point x="75" y="560" type="curve"/>
      <point x="75" y="350" type="line"/>
      <point x="75" y="295"/>
      <point x="59" y="285"/>
      <point x="0" y="270" type="curve"/>
      <point x="0" y="230" type="line"/>
      <point x="60" y="215"/>
      <point x="75" y="205"/>
      <point x="75" y="150" type="curve" smooth="yes"/>
      <point x="75" y="-60" type="line"/>
      <point x="75" y="-160"/>
      <point x="130" y="-200"/>
      <point x="200" y="-200" type="curve"/>
      <point x="200" y="-150" type="line"/>
      <point x="155" y="-150"/>
      <point x="125" y="-132"/>
      <point x="125" y="-60" type="curve" smooth="yes"/>
      <point x="125" y="150" type="line"/>
      <point x="125" y="210"/>
      <point x="105" y="240"/>
      <point x="75" y="250" type="curve"/>
      <point x="105" y="260"/>
      <point x="125" y="290"/>
      <point x="125" y="350" type="curve"/>
      <point x="125" y="560" type="line" smooth="yes"/>
      <point x="125" y="632"/>
      <point x="155" y="650"/>
      <point x="200" y="650" type="curve"/>
      <point x="200" y="700" type="line"/>
      <point x="130" y="700"/>
      <point x="75" y="660"/>
    </contour>
  </outline>
</glyph>
<glyph name="currency" format="1">
  <advance width="400"/>
  <unicode hex="00A4"/>
  <outline>
    <contour>
      <point x="280" y="350" type="curve"/>
      <point x="280" y="295"/>
      <point x="262" y="270"/>
      <point x="200" y="270" type="curve"/>
      <point x="145" y="270"/>
      <point x="120" y="295"/>
      <point x="120" y="350" type="curve"/>
      <point x="120" y="410"/>
      <point x="145" y="430"/>
      <point x="200" y="430" type="curve"/>
      <point x="262" y="430"/>
      <point x="280" y="410"/>
    </contour>
    <contour>
      <point x="325" y="350" type="curve"/>
      <point x="325" y="440"/>
      <point x="279" y="475"/>
      <point x="200" y="475" type="curve"/>
      <point x="121" y="475"/>
      <point x="75" y="440"/>
      <point x="75" y="350" type="curve"/>
      <point x="75" y="265"/>
      <point x="121" y="225"/>
      <point x="200" y="225" type="curve"/>
      <point x="279" y="225"/>
      <point x="325" y="265"/>
    </contour>
    <contour>
      <point x="105" y="290" type="line"/>
      <point x="20" y="205" type="line"/>
      <point x="55" y="170" type="line"/>
      <point x="140" y="255" type="line"/>
    </contour>
    <contour>
      <point x="380" y="495" type="line"/>
      <point x="345" y="530" type="line"/>
      <point x="250" y="435" type="line"/>
      <point x="285" y="400" type="line"/>
    </contour>
    <contour>
      <point x="295" y="290" type="line"/>
      <point x="260" y="255" type="line"/>
      <point x="345" y="170" type="line"/>
      <point x="380" y="205" type="line"/>
    </contour>
    <contour>
      <point x="20" y="495" type="line"/>
      <point x="115" y="400" type="line"/>
      <point x="150" y="435" type="line"/>
      <point x="55" y="530" type="line"/>
    </contour>
  </outline>
</glyph>
<glyph name="brokenbar" format="1">
  <advance width="200"/>
  <unicode hex="00A6"/>
  <outline>
    <contour>
      <point x="75" y="400" type="line"/>
      <point x="125" y="400" type="line"/>
      <point x="125" y="700" type="line"/>
      <point x="75" y="700" type="line"/>
    </contour>
    <contour>
      <point x="75" y="0" type="line"/>
      <point x="125" y="0" type="line"/>
      <point x="125" y="300" type="line"/>
      <point x="75" y="300" type="line"/>
    </contour>
  </outline>
</glyph>
<glyph name="copyright" format="1">
  <advance width="800"/>
  <unicode hex="00A9"/>
  <outline>
    <contour>
      <point x="430" y="700" type="curve" smooth="yes"/>
      <point x="400" y="700" type="line"/>
      <point x="400" y="650" type="line"/>
      <point x="620" y="650"/>
      <point x="675" y="560"/>
      <point x="675" y="410" type="curve" smooth="yes"/>
      <point x="675" y="350" type="line"/>
      <point x="725" y="350" type="line"/>
      <point x="725" y="430" type="line"/>
      <point x="725" y="590"/>
      <point x="635" y="700"/>
    </contour>
    <contour>
      <point x="430" y="0" type="line" smooth="yes"/>
      <point x="635" y="0"/>
      <point x="725" y="110"/>
      <point x="725" y="270" type="curve"/>
      <point x="725" y="350" type="line"/>
      <point x="675" y="350" type="line"/>
      <point x="675" y="290" type="line" smooth="yes"/>
      <point x="675" y="125"/>
      <point x="620" y="50"/>
      <point x="400" y="50" type="curve"/>
      <point x="400" y="0" type="line"/>
    </contour>
    <contour>
      <point x="525" y="380" type="line"/>
      <point x="525" y="453"/>
      <point x="485" y="485"/>
      <point x="400" y="485" type="curve" smooth="yes"/>
      <point x="315" y="485"/>
      <point x="265" y="460"/>
      <point x="265" y="360" type="curve"/>
      <point x="265" y="350" type="line"/>
      <point x="320" y="350" type="line"/>
      <point x="320" y="360" type="line" smooth="yes"/>
      <point x="320" y="420"/>
      <point x="345" y="435"/>
      <point x="400" y="435" type="curve" smooth="yes"/>
      <point x="445" y="435"/>
      <point x="475" y="417"/>
      <point x="475" y="380" type="curve"/>
      <point x="475" y="370" type="line"/>
      <point x="525" y="370" type="line"/>
    </contour>
    <contour>
      <point x="525" y="320" type="curve"/>
      <point x="525" y="330" type="line"/>
      <point x="475" y="330" type="line"/>
      <point x="475" y="320" type="line"/>
      <point x="475" y="283"/>
      <point x="445" y="265"/>
      <point x="400" y="265" type="curve" smooth="yes"/>
      <point x="345" y="265"/>
      <point x="320" y="280"/>
      <point x="320" y="340" type="curve" smooth="yes"/>
      <point x="320" y="350" type="line"/>
      <point x="265" y="350" type="line"/>
      <point x="265" y="340" type="line"/>
      <point x="265" y="240"/>
      <point x="315" y="215"/>
      <point x="400" y="215" type="curve" smooth="yes"/>
      <point x="485" y="215"/>
      <point x="525" y="247"/>
    </contour>
    <contour>
      <point x="370" y="700" type="line" smooth="yes"/>
      <point x="165" y="700"/>
      <point x="75" y="590"/>
      <point x="75" y="430" type="curve"/>
      <point x="75" y="350" type="line"/>
      <point x="125" y="350" type="line"/>
      <point x="125" y="410" type="line" smooth="yes"/>
      <point x="125" y="575"/>
      <point x="180" y="650"/>
      <point x="400" y="650" type="curve"/>
      <point x="400" y="700" type="line"/>
    </contour>
    <contour>
      <point x="370" y="0" type="curve" smooth="yes"/>
      <point x="400" y="0" type="line"/>
      <point x="400" y="50" type="line"/>
      <point x="180" y="50"/>
      <point x="125" y="125"/>
      <point x="125" y="290" type="curve" smooth="yes"/>
      <point x="125" y="350" type="line"/>
      <point x="75" y="350" type="line"/>
      <point x="75" y="270" type="line"/>
      <point x="75" y="110"/>
      <point x="165" y="0"/>
    </contour>
    <contour>
      <point x="300" y="650" type="move" name="top"/>
    </contour>
  </outline>
</glyph>
<glyph name="registered" format="1">
  <advance width="800"/>
  <unicode hex="00AE"/>
  <outline>
    <contour>
      <point x="325" y="200" type="line"/>
      <point x="325" y="500" type="line"/>
      <point x="275" y="500" type="line"/>
      <point x="275" y="200" type="line"/>
    </contour>
    <contour>
      <point x="470" y="385" type="curve"/>
      <point x="470" y="343"/>
      <point x="455" y="325"/>
      <point x="395" y="325" type="curve"/>
      <point x="320" y="325" type="line"/>
      <point x="310" y="275" type="line"/>
      <point x="385" y="275" type="line"/>
      <point x="435" y="275"/>
      <point x="469" y="256"/>
      <point x="475" y="200" type="curve"/>
      <point x="525" y="200" type="line"/>
      <point x="525" y="250"/>
      <point x="505" y="285"/>
      <point x="460" y="290" type="curve"/>
      <point x="460" y="300" type="line"/>
      <point x="497" y="309"/>
      <point x="530" y="345"/>
      <point x="530" y="395" type="curve"/>
      <point x="530" y="463"/>
      <point x="488" y="500"/>
      <point x="400" y="500" type="curve"/>
      <point x="310" y="500" type="line"/>
      <point x="310" y="450" type="line"/>
      <point x="395" y="450" type="line"/>
      <point x="455" y="450"/>
      <point x="470" y="433"/>
    </contour>
    <contour>
      <point x="430" y="700" type="curve" smooth="yes"/>
      <point x="400" y="700" type="line"/>
      <point x="400" y="650" type="line"/>
      <point x="620" y="650"/>
      <point x="675" y="560"/>
      <point x="675" y="410" type="curve" smooth="yes"/>
      <point x="675" y="350" type="line"/>
      <point x="725" y="350" type="line"/>
      <point x="725" y="430" type="line"/>
      <point x="725" y="590"/>
      <point x="635" y="700"/>
    </contour>
    <contour>
      <point x="430" y="0" type="line" smooth="yes"/>
      <point x="635" y="0"/>
      <point x="725" y="110"/>
      <point x="725" y="270" type="curve"/>
      <point x="725" y="350" type="line"/>
      <point x="675" y="350" type="line"/>
      <point x="675" y="290" type="line" smooth="yes"/>
      <point x="675" y="125"/>
      <point x="620" y="50"/>
      <point x="400" y="50" type="curve"/>
      <point x="400" y="0" type="line"/>
    </contour>
    <contour>
      <point x="370" y="700" type="line" smooth="yes"/>
      <point x="165" y="700"/>
      <point x="75" y="590"/>
      <point x="75" y="430" type="curve"/>
      <point x="75" y="350" type="line"/>
      <point x="125" y="350" type="line"/>
      <point x="125" y="410" type="line" smooth="yes"/>
      <point x="125" y="575"/>
      <point x="180" y="650"/>
      <point x="400" y="650" type="curve"/>
      <point x="400" y="700" type="line"/>
    </contour>
    <contour>
      <point x="370" y="0" type="curve" smooth="yes"/>
      <point x="400" y="0" type="line"/>
      <point x="400" y="50" type="line"/>
      <point x="180" y="50"/>
      <point x="125" y="125"/>
      <point x="125" y="290" type="curve" smooth="yes"/>
      <point x="125" y="350" type="line"/>
      <point x="75" y="350" type="line"/>
      <point x="75" y="270" type="line"/>
      <point x="75" y="110"/>
      <point x="165" y="0"/>
    </contour>
    <contour>
      <point x="300" y="650" type="move" name="top"/>
    </contour>
  </outline>
</glyph>
<glyph name="cedilla" format="1">
  <advance width="200"/>
  <unicode hex="00B8"/>
  <outline>
    <contour>
      <point x="80" y="0" type="line"/>
      <point x="70" y="-85" type="line"/>
      <point x="110" y="-85"/>
      <point x="135" y="-85"/>
      <point x="135" y="-115" type="curve" smooth="yes"/>
      <point x="135" y="-142"/>
      <point x="119" y="-155"/>
      <point x="70" y="-155" type="curve"/>
      <point x="30" y="-155" type="line"/>
      <point x="20" y="-200" type="line"/>
      <point x="70" y="-200" type="line"/>
      <point x="140" y="-200"/>
      <point x="180" y="-176"/>
      <point x="180" y="-115" type="curve" smooth="yes"/>
      <point x="180" y="-70"/>
      <point x="160" y="-50"/>
      <point x="115" y="-50" type="curve"/>
      <point x="115" y="0" type="line"/>
    </contour>
    <contour>
      <point x="95" y="0" type="move" name="_bottom"/>
    </contour>
  </outline>
</glyph>
<glyph name="Eth" format="1">
  <advance width="600"/>
  <unicode hex="00D0"/>
  <outline>
    <contour>
      <point x="250" y="225" type="line"/>
      <point x="250" y="275" type="line"/>
      <point x="0" y="275" type="line"/>
      <point x="0" y="225" type="line"/>
    </contour>
    <component base="D"/>
  </outline>
</glyph>
<glyph name="ae" format="1">
  <advance width="1000"/>
  <unicode hex="00E6"/>
  <outline>
    <contour>
      <point x="525" y="290" type="line" smooth="yes"/>
      <point x="525" y="405"/>
      <point x="550" y="460"/>
      <point x="700" y="460" type="curve"/>
      <point x="854" y="460"/>
      <point x="880" y="420"/>
      <point x="880" y="305" type="curve"/>
      <point x="880" y="275" type="line"/>
      <point x="525" y="275" type="line"/>
    </contour>
    <contour>
      <point x="700" y="-10" type="curve"/>
      <point x="874" y="-10"/>
      <point x="930" y="40"/>
      <point x="930" y="130" type="curve"/>
      <point x="930" y="175" type="line"/>
      <point x="880" y="175" type="line"/>
      <point x="880" y="140" type="line"/>
      <point x="880" y="65"/>
      <point x="854" y="40"/>
      <point x="700" y="40" type="curve"/>
      <point x="550" y="40"/>
      <point x="525" y="95"/>
      <point x="525" y="210" type="curve" smooth="yes"/>
      <point x="525" y="225" type="line"/>
      <point x="930" y="225" type="line"/>
      <point x="930" y="315" type="line"/>
      <point x="930" y="440"/>
      <point x="879" y="510"/>
      <point x="700" y="510" type="curve"/>
      <point x="590" y="510"/>
      <point x="525" y="480"/>
      <point x="500" y="420" type="curve"/>
      <point x="475" y="480"/>
      <point x="405" y="510"/>
      <point x="300" y="510" type="curve" smooth="yes"/>
      <point x="130" y="510"/>
      <point x="75" y="445"/>
      <point x="75" y="340" type="curve"/>
      <point x="75" y="320" type="line"/>
      <point x="125" y="320" type="line"/>
      <point x="125" y="340" type="line"/>
      <point x="125" y="425"/>
      <point x="160" y="460"/>
      <point x="300" y="460" type="curve" smooth="yes"/>
      <point x="435" y="460"/>
      <point x="475" y="425"/>
      <point x="475" y="330" type="curve" smooth="yes"/>
      <point x="475" y="220" type="line"/>
      <point x="445" y="260"/>
      <point x="385" y="280"/>
      <point x="270" y="280" type="curve" smooth="yes"/>
      <point x="130" y="280"/>
      <point x="65" y="235"/>
      <point x="65" y="135" type="curve"/>
      <point x="65" y="35"/>
      <point x="130" y="-10"/>
      <point x="270" y="-10" type="curve" smooth="yes"/>
      <point x="413" y="-10"/>
      <point x="480" y="15"/>
      <point x="505" y="75" type="curve"/>
      <point x="535" y="15"/>
      <point x="593" y="-10"/>
    </contour>
    <contour>
      <point x="270" y="40" type="curve"/>
      <point x="145" y="40"/>
      <point x="115" y="65"/>
      <point x="115" y="135" type="curve"/>
      <point x="115" y="205"/>
      <point x="145" y="230"/>
      <point x="270" y="230" type="curve"/>
      <point x="430" y="230"/>
      <point x="475" y="200"/>
      <point x="475" y="135" type="curve"/>
      <point x="475" y="70"/>
      <point x="430" y="40"/>
    </contour>
    <contour>
      <point x="700" y="500" type="move" name="top"/>
    </contour>
  </outline>
</glyph>
<glyph name="eth" format="1">
  <advance width="600"/>
  <unicode hex="00F0"/>
  <outline>
    <contour>
      <point x="300" y="40" type="curve"/>
      <point x="145" y="40"/>
      <point x="120" y="97"/>
      <point x="120" y="210" type="curve" smooth="yes"/>
      <point x="120" y="250" type="line"/>
      <point x="70" y="250" type="line"/>
      <point x="70" y="210" type="line"/>
      <point x="70" y="80"/>
      <point x="124" y="-10"/>
      <point x="300" y="-10" type="curve"/>
      <point x="476" y="-10"/>
      <point x="530" y="80"/>
      <point x="530" y="260" type="curve" smooth="yes"/>
      <point x="530" y="450"/>
      <point x="465" y="560"/>
      <point x="265" y="700" type="curve"/>
      <point x="200" y="700" type="line"/>
      <point x="200" y="685" type="line"/>
      <point x="410" y="535"/>
      <point x="480" y="460"/>
      <point x="480" y="260" type="curve" smooth="yes"/>
      <point x="480" y="90"/>
      <point x="455" y="40"/>
    </contour>
    <contour>
      <point x="480" y="375" type="line"/>
      <point x="465" y="450"/>
      <point x="410" y="510"/>
      <point x="265" y="510" type="curve" smooth="yes"/>
      <point x="132" y="510"/>
      <point x="70" y="440"/>
      <point x="70" y="290" type="curve"/>
      <point x="70" y="250" type="line"/>
      <point x="120" y="250" type="line"/>
      <point x="120" y="260" type="line"/>
      <point x="120" y="420"/>
      <point x="165" y="460"/>
      <point x="295" y="460" type="curve" smooth="yes"/>
      <point x="455" y="460"/>
      <point x="480" y="393"/>
      <point x="480" y="260" type="curve"/>
    </contour>
    <contour>
      <point x="175" y="530" type="line"/>
      <point x="475" y="650" type="line"/>
      <point x="475" y="700" type="line"/>
      <point x="175" y="580" type="line"/>
    </contour>
    <contour>
      <point x="900" y="500" type="move" name="top"/>
    </contour>
  </outline>
</glyph>
<glyph name="Aogonek" format="1">
  <advance width="600"/>
  <unicode hex="0104"/>
  <outline>
    <contour>
      <point x="497" y="20" type="line"/>
      <point x="427" y="-25"/>
      <point x="404" y="-67"/>
      <point x="404" y="-106" type="curve" smooth="yes"/>
      <point x="404" y="-156"/>
      <point x="442" y="-185"/>
      <point x="500" y="-185" type="curve" smooth="yes"/>
      <point x="511" y="-185"/>
      <point x="527" y="-184"/>
      <point x="542" y="-180" type="curve"/>
      <point x="542" y="-130" type="line"/>
      <point x="530" y="-134"/>
      <point x="519" y="-135"/>
      <point x="507" y="-135" type="curve" smooth="yes"/>
      <point x="470" y="-135"/>
      <point x="450" y="-126"/>
      <point x="450" y="-99" type="curve" smooth="yes"/>
      <point x="450" y="-70"/>
      <point x="474" y="-35"/>
      <point x="525" y="0" type="curve"/>
    </contour>
    <component base="A"/>
  </outline>
</glyph>
<glyph name="Eogonek" format="1">
  <advance width="600"/>
  <unicode hex="0118"/>
  <outline>
    <contour>
      <point x="497" y="20" type="line"/>
      <point x="427" y="-25"/>
      <point x="404" y="-67"/>
      <point x="404" y="-106" type="curve" smooth="yes"/>
      <point x="404" y="-156"/>
      <point x="442" y="-185"/>
      <point x="500" y="-185" type="curve" smooth="yes"/>
      <point x="511" y="-185"/>
      <point x="527" y="-184"/>
      <point x="542" y="-180" type="curve"/>
      <point x="542" y="-130" type="line"/>
      <point x="530" y="-134"/>
      <point x="519" y="-135"/>
      <point x="507" y="-135" type="curve" smooth="yes"/>
      <point x="470" y="-135"/>
      <point x="450" y="-126"/>
      <point x="450" y="-99" type="curve" smooth="yes"/>
      <point x="450" y="-70"/>
      <point x="474" y="-35"/>
      <point x="525" y="0" type="curve"/>
    </contour>
    <component base="E"/>
  </outline>
</glyph>
<glyph name="eogonek" format="1">
  <advance width="601"/>
  <unicode hex="0119"/>
  <outline>
    <contour>
      <point x="300" y="510" type="curve"/>
      <point x="120" y="510"/>
      <point x="70" y="435"/>
      <point x="70" y="290" type="curve"/>
      <point x="70" y="250" type="line"/>
      <point x="120" y="250" type="line"/>
      <point x="120" y="290" type="line" smooth="yes"/>
      <point x="120" y="405"/>
      <point x="145" y="460"/>
      <point x="300" y="460" type="curve"/>
      <point x="454" y="460"/>
      <point x="480" y="420"/>
      <point x="480" y="305" type="curve"/>
      <point x="480" y="225" type="line"/>
      <point x="530" y="225" type="line"/>
      <point x="530" y="315" type="line"/>
      <point x="530" y="440"/>
      <point x="479" y="510"/>
    </contour>
    <contour>
      <point x="300" y="40" type="curve"/>
      <point x="145" y="40"/>
      <point x="120" y="95"/>
      <point x="120" y="210" type="curve" smooth="yes"/>
      <point x="120" y="250" type="line"/>
      <point x="70" y="250" type="line"/>
      <point x="70" y="210" type="line"/>
      <point x="70" y="60"/>
      <point x="120" y="-10"/>
      <point x="300" y="-10" type="curve"/>
      <point x="474" y="-10"/>
      <point x="530" y="40"/>
      <point x="530" y="130" type="curve"/>
      <point x="530" y="175" type="line"/>
      <point x="480" y="175" type="line"/>
      <point x="480" y="140" type="line"/>
      <point x="480" y="65"/>
      <point x="454" y="40"/>
    </contour>
    <contour>
      <point x="100" y="225" type="line"/>
      <point x="530" y="225" type="line"/>
      <point x="530" y="275" type="line"/>
      <point x="100" y="275" type="line"/>
    </contour>
    <contour>
      <point x="505" y="80" type="line"/>
      <point x="424" y="-4"/>
      <point x="394" y="-65"/>
      <point x="394" y="-108" type="curve" smooth="yes"/>
      <point x="394" y="-162"/>
      <point x="434" y="-185"/>
      <point x="489" y="-185" type="curve" smooth="yes"/>
      <point x="500" y="-185"/>
      <point x="516" y="-184"/>
      <point x="531" y="-180" type="curve"/>
      <point x="531" y="-130" type="line"/>
      <point x="519" y="-134"/>
      <point x="508" y="-135"/>
      <point x="496" y="-135" type="curve" smooth="yes"/>
      <point x="460" y="-135"/>
      <point x="440" y="-127"/>
      <point x="440" y="-100" type="curve" smooth="yes"/>
      <point x="440" y="-72"/>
      <point x="463" y="-22"/>
      <point x="513" y="60" type="curve"/>
    </contour>
    <contour>
      <point x="300" y="500" type="move" name="top"/>
    </contour>
  </outline>
</glyph>
<glyph name="dotlessi" format="1">
  <advance width="200"/>
  <unicode hex="0131"/>
  <outline>
    <contour>
      <point x="75" y="0" type="line"/>
      <point x="125" y="0" type="line"/>
      <point x="125" y="500" type="line"/>
      <point x="75" y="500" type="line"/>
    </contour>
    <contour>
      <point x="100" y="500" type="move" name="top"/>
    </contour>
  </outline>
</glyph>
<glyph name="lslash" format="1">
  <advance width="205"/>
  <unicode hex="0142"/>
  <outline>
    <contour>
      <point x="0" y="340" type="line"/>
      <point x="221" y="412" type="line"/>
      <point x="221" y="457" type="line"/>
      <point x="0" y="385" type="line"/>
    </contour>
    <component base="l"/>
  </outline>
</glyph>
<glyph name="OE" format="1">
  <advance width="600"/>
  <unicode hex="0152"/>
  <outline>
    <contour>
      <point x="275" y="560" type="curve" smooth="yes"/>
      <point x="275" y="140" type="line" smooth="yes"/>
      <point x="275" y="60"/>
      <point x="245" y="40"/>
      <point x="200" y="40" type="curve"/>
      <point x="155" y="40"/>
      <point x="125" y="60"/>
      <point x="125" y="140" type="curve" smooth="yes"/>
      <point x="125" y="560" type="line" smooth="yes"/>
      <point x="125" y="640"/>
      <point x="155" y="660"/>
      <point x="200" y="660" type="curve"/>
      <point x="245" y="660"/>
      <point x="275" y="640"/>
    </contour>
    <contour>
      <point x="330" y="0" type="line"/>
      <point x="550" y="0" type="line"/>
      <point x="550" y="50" type="line"/>
      <point x="325" y="50" type="line"/>
      <point x="325" y="225" type="line"/>
      <point x="500" y="225" type="line"/>
      <point x="500" y="275" type="line"/>
      <point x="325" y="275" type="line"/>
      <point x="325" y="650" type="line"/>
      <point x="550" y="650" type="line"/>
      <point x="550" y="700" type="line"/>
      <point x="330" y="700" type="line"/>
      <point x="290" y="665" type="line"/>
      <point x="266" y="699"/>
      <point x="232" y="710"/>
      <point x="200" y="710" type="curve"/>
      <point x="130" y="710"/>
      <point x="75" y="655"/>
      <point x="75" y="560" type="curve"/>
      <point x="75" y="140" type="line"/>
      <point x="75" y="45"/>
      <point x="130" y="-10"/>
      <point x="200" y="-10" type="curve"/>
      <point x="232" y="-10"/>
      <point x="266" y="-4"/>
      <point x="290" y="35" type="curve"/>
    </contour>
  </outline>
</glyph>
<glyph name="dotaccent" format="1">
  <advance width="200"/>
  <unicode hex="02D9"/>
  <outline>
    <contour>
      <point x="140" y="665" type="curve"/>
      <point x="140" y="635"/>
      <point x="130" y="625"/>
      <point x="100" y="625" type="curve"/>
      <point x="70" y="625"/>
      <point x="60" y="635"/>
      <point x="60" y="665" type="curve"/>
      <point x="60" y="695"/>
      <point x="70" y="705"/>
      <point x="100" y="705" type="curve"/>
      <point x="130" y="705"/>
      <point x="140" y="695"/>
    </contour>
    <contour>
      <point x="100" y="500" type="move" name="_top"/>
    </contour>
  </outline>
</glyph>
<glyph name="ring" format="1">
  <advance width="400"/>
  <unicode hex="02DA"/>
  <outline>
    <contour>
      <point x="290" y="660" type="curve" smooth="yes"/>
      <point x="290" y="629"/>
      <point x="270" y="605"/>
      <point x="200" y="605" type="curve"/>
      <point x="130" y="605"/>
      <point x="110" y="629"/>
      <point x="110" y="660" type="curve" smooth="yes"/>
      <point x="110" y="691"/>
      <point x="130" y="715"/>
      <point x="200" y="715" type="curve"/>
      <point x="270" y="715"/>
      <point x="290" y="691"/>
    </contour>
    <contour>
      <point x="335" y="660" type="curve" smooth="yes"/>
      <point x="335" y="720"/>
      <point x="295" y="755"/>
      <point x="200" y="755" type="curve"/>
      <point x="105" y="755"/>
      <point x="65" y="720"/>
      <point x="65" y="660" type="curve" smooth="yes"/>
      <point x="65" y="600"/>
      <point x="105" y="565"/>
      <point x="200" y="565" type="curve"/>
      <point x="295" y="565"/>
      <point x="335" y="600"/>
    </contour>
    <contour>
      <point x="200" y="500" type="move" name="_top"/>
    </contour>
  </outline>
</glyph>
<glyph name="endash" format="1">
  <advance width="600"/>
  <unicode hex="2013"/>
  <outline>
    <contour>
      <point x="550" y="250" type="line"/>
      <point x="550" y="300" type="line"/>
      <point x="50" y="300" type="line"/>
      <point x="50" y="250" type="line"/>
    </contour>
  </outline>
</glyph>
<glyph name="emdash" format="1">
  <advance width="1000"/>
  <unicode hex="2014"/>
  <outline>
    <contour>
      <point x="950" y="250" type="line"/>
      <point x="950" y="300" type="line"/>
      <point x="50" y="300" type="line"/>
      <point x="50" y="250" type="line"/>
    </contour>
  </outline>
</glyph>
<glyph name="upwardsarrow" format="1">
  <advance width="600"/>
  <unicode hex="2191"/>
  <outline>
    <contour>
      <point x="350" y="-25" type="line"/>
      <point x="350" y="175" type="line"/>
      <point x="335" y="450" type="line"/>
      <point x="265" y="450" type="line"/>
      <point x="250" y="175" type="line"/>
      <point x="250" y="-25" type="line"/>
    </contour>
    <contour>
      <point x="285" y="525" type="line"/>
      <point x="50" y="290" type="line"/>
      <point x="50" y="165" type="line"/>
      <point x="65" y="165" type="line"/>
      <point x="200" y="305" type="line"/>
      <point x="275" y="395" type="line"/>
      <point x="295" y="410" type="line"/>
      <point x="310" y="525" type="line"/>
    </contour>
    <contour>
      <point x="315" y="525" type="line"/>
      <point x="290" y="525" type="line"/>
      <point x="280" y="410" type="line"/>
      <point x="305" y="410" type="line"/>
      <point x="325" y="395" type="line"/>
      <point x="400" y="305" type="line"/>
      <point x="535" y="165" type="line"/>
      <point x="550" y="165" type="line"/>
      <point x="550" y="290" type="line"/>
    </contour>
  </outline>
</glyph>
<glyph name="rightwardsarrow" format="1">
  <advance width="600"/>
  <unicode hex="2192"/>
  <outline>
    <contour>
      <point x="25" y="200" type="line"/>
      <point x="225" y="200" type="line"/>
      <point x="500" y="215" type="line"/>
      <point x="500" y="285" type="line"/>
      <point x="225" y="300" type="line"/>
      <point x="25" y="300" type="line"/>
    </contour>
    <contour>
      <point x="575" y="265" type="line"/>
      <point x="340" y="500" type="line"/>
      <point x="215" y="500" type="line"/>
      <point x="215" y="485" type="line"/>
      <point x="355" y="350" type="line"/>
      <point x="445" y="275" type="line"/>
      <point x="460" y="255" type="line"/>
      <point x="575" y="240" type="line"/>
    </contour>
    <contour>
      <point x="575" y="235" type="line"/>
      <point x="575" y="260" type="line"/>
      <point x="460" y="270" type="line"/>
      <point x="460" y="245" type="line"/>
      <point x="445" y="225" type="line"/>
      <point x="355" y="150" type="line"/>
      <point x="215" y="15" type="line"/>
      <point x="215" y="0" type="line"/>
      <point x="340" y="0" type="line"/>
    </contour>
  </outline>
</glyph>
<glyph name="downwardsarrow" format="1">
  <advance width="600"/>
  <unicode hex="2193"/>
  <outline>
    <contour>
      <point x="350" y="525" type="line"/>
      <point x="250" y="525" type="line"/>
      <point x="250" y="325" type="line"/>
      <point x="265" y="50" type="line"/>
      <point x="335" y="50" type="line"/>
      <point x="350" y="325" type="line"/>
    </contour>
    <contour>
      <point x="285" y="-25" type="line"/>
      <point x="310" y="-25" type="line"/>
      <point x="295" y="90" type="line"/>
      <point x="275" y="105" type="line"/>
      <point x="200" y="195" type="line"/>
      <point x="65" y="335" type="line"/>
      <point x="50" y="335" type="line"/>
      <point x="50" y="210" type="line"/>
    </contour>
    <contour>
      <point x="315" y="-25" type="line"/>
      <point x="550" y="210" type="line"/>
      <point x="550" y="335" type="line"/>
      <point x="535" y="335" type="line"/>
      <point x="400" y="195" type="line"/>
      <point x="325" y="105" type="line"/>
      <point x="305" y="90" type="line"/>
      <point x="280" y="90" type="line"/>
      <point x="290" y="-25" type="line"/>
    </contour>
  </outline>
</glyph>
<glyph name="southwestarrow" format="1">
  <advance width="800"/>
  <unicode hex="2199"/>
  <outline>
    <contour>
      <point x="655" y="675" type="line"/>
      <point x="295" y="310" type="line"/>
      <point x="90" y="90" type="line"/>
      <point x="140" y="40" type="line"/>
      <point x="365" y="245" type="line"/>
      <point x="725" y="605" type="line"/>
    </contour>
    <contour>
      <point x="70" y="0" type="line"/>
      <point x="605" y="0" type="line"/>
      <point x="690" y="90" type="line"/>
      <point x="680" y="100" type="line"/>
      <point x="285" y="95" type="line"/>
      <point x="170" y="85" type="line"/>
      <point x="145" y="90" type="line"/>
      <point x="50" y="20" type="line"/>
    </contour>
    <contour>
      <point x="50" y="20" type="line"/>
      <point x="70" y="0" type="line"/>
      <point x="155" y="80" type="line"/>
      <point x="140" y="95" type="line"/>
      <point x="135" y="120" type="line"/>
      <point x="145" y="235" type="line"/>
      <point x="150" y="630" type="line"/>
      <point x="140" y="640" type="line"/>
      <point x="50" y="555" type="line"/>
    </contour>
  </outline>
</glyph>
<glyph name="heavyverticalandhorizontal" format="1">
  <advance width="1000"/>
  <unicode hex="254B"/>
  <outline>
    <contour>
      <point x="50" y="225" type="line"/>
      <point x="950" y="225" type="line"/>
      <point x="950" y="275" type="line"/>
      <point x="50" y="275" type="line"/>
    </contour>
    <contour>
      <point x="535" y="-200" type="line"/>
      <point x="535" y="700" type="line"/>
      <point x="485" y="700" type="line"/>
      <point x="485" y="-200" type="line"/>
    </contour>
  </outline>
</glyph>
<glyph name="blackdiamond" format="1">
  <advance width="1000"/>
  <unicode hex="25C6"/>
  <outline>
    <contour>
      <point x="500" y="-245" type="line"/>
      <point x="995" y="250" type="line"/>
      <point x="500" y="745" type="line"/>
      <point x="5" y="250" type="line"/>
    </contour>
  </outline>
</glyph>
<glyph name="E.small" format="1">
  <advance width="600"/>
  <outline>
    <contour>
      <point x="75" y="0" type="line"/>
      <point x="125" y="0" type="line"/>
      <point x="125" y="500" type="line"/>
      <point x="75" y="500" type="line"/>
    </contour>
    <contour>
      <point x="125" y="0" type="line"/>
      <point x="550" y="0" type="line"/>
      <point x="550" y="50" type="line"/>
      <point x="125" y="50" type="line"/>
    </contour>
    <contour>
      <point x="125" y="450" type="line"/>
      <point x="550" y="450" type="line"/>
      <point x="550" y="500" type="line"/>
      <point x="125" y="500" type="line"/>
    </contour>
    <contour>
      <point x="125" y="225" type="line"/>
      <point x="500" y="225" type="line"/>
      <point x="500" y="275" type="line"/>
      <point x="125" y="275" type="line"/>
    </contour>
    <contour>
      <point x="315" y="450" type="move" name="top"/>
    </contour>
  </outline>
</glyph>
<glyph name="G.small" format="1">
  <advance width="600"/>
  <outline>
    <contour>
      <point x="525" y="370" type="line"/>
      <point x="525" y="460"/>
      <point x="475" y="510"/>
      <point x="300" y="510" type="curve" smooth="yes"/>
      <point x="125" y="510"/>
      <point x="75" y="450"/>
      <point x="75" y="310" type="curve"/>
      <point x="75" y="250" type="line"/>
      <point x="125" y="250" type="line"/>
      <point x="125" y="310" type="line" smooth="yes"/>
      <point x="125" y="430"/>
      <point x="150" y="460"/>
      <point x="300" y="460" type="curve" smooth="yes"/>
      <point x="450" y="460"/>
      <point x="475" y="440"/>
      <point x="475" y="360" type="curve"/>
      <point x="475" y="345" type="line"/>
      <point x="525" y="345" type="line"/>
    </contour>
    <contour>
      <point x="475" y="70" type="curve"/>
      <point x="475" y="200" type="line"/>
      <point x="475" y="91"/>
      <point x="405" y="40"/>
      <point x="300" y="40" type="curve" smooth="yes"/>
      <point x="150" y="40"/>
      <point x="125" y="70"/>
      <point x="125" y="190" type="curve" smooth="yes"/>
      <point x="125" y="250" type="line"/>
      <point x="75" y="250" type="line"/>
      <point x="75" y="190" type="line"/>
      <point x="75" y="55"/>
      <point x="125" y="-10"/>
      <point x="270" y="-10" type="curve"/>
      <point x="407" y="-10"/>
      <point x="455" y="24"/>
    </contour>
    <contour>
      <point x="525" y="250" type="line"/>
      <point x="475" y="250" type="line"/>
      <point x="475" y="70" type="line"/>
      <point x="485" y="0" type="line"/>
      <point x="525" y="0" type="line"/>
    </contour>
    <contour>
      <point x="300" y="200" type="line"/>
      <point x="575" y="200" type="line"/>
      <point x="575" y="250" type="line"/>
      <point x="300" y="250" type="line"/>
    </contour>
  </outline>
</glyph>
<glyph name="H.small" format="1">
  <advance width="600"/>
  <outline>
    <contour>
      <point x="75" y="0" type="line"/>
      <point x="125" y="0" type="line"/>
      <point x="125" y="500" type="line"/>
      <point x="75" y="500" type="line"/>
    </contour>
    <contour>
      <point x="100" y="225" type="line"/>
      <point x="500" y="225" type="line"/>
      <point x="500" y="275" type="line"/>
      <point x="100" y="275" type="line"/>
    </contour>
    <contour>
      <point x="475" y="0" type="line"/>
      <point x="525" y="0" type="line"/>
      <point x="525" y="500" type="line"/>
      <point x="475" y="500" type="line"/>
    </contour>
  </outline>
</glyph>
<glyph name="J.small" format="1">
  <advance width="400"/>
  <outline>
    <contour>
      <point x="75" y="130" type="line"/>
      <point x="75" y="45"/>
      <point x="120" y="-10"/>
      <point x="200" y="-10" type="curve" smooth="yes"/>
      <point x="280" y="-10"/>
      <point x="325" y="40"/>
      <point x="325" y="140" type="curve"/>
      <point x="325" y="500" type="line"/>
      <point x="275" y="500" type="line"/>
      <point x="275" y="140" type="line" smooth="yes"/>
      <point x="275" y="60"/>
      <point x="245" y="40"/>
      <point x="200" y="40" type="curve" smooth="yes"/>
      <point x="155" y="40"/>
      <point x="125" y="55"/>
      <point x="125" y="130" type="curve"/>
      <point x="125" y="250" type="line"/>
      <point x="75" y="250" type="line"/>
    </contour>
  </outline>
</glyph>
<glyph name="Oslash.small" format="1">
  <advance width="600"/>
  <outline>
    <contour>
      <point x="50" y="0" type="line"/>
      <point x="85" y="-35" type="line"/>
      <point x="550" y="500" type="line"/>
      <point x="515" y="535" type="line"/>
    </contour>
    <component base="o"/>
  </outline>
</glyph>
<glyph name="Q.small" format="1">
  <advance width="600"/>
  <outline>
    <contour>
      <point x="275" y="-50" type="line"/>
      <point x="325" y="-50" type="line"/>
      <point x="325" y="200" type="line"/>
      <point x="275" y="200" type="line"/>
    </contour>
    <component base="o"/>
  </outline>
</glyph>
<glyph name="ae.alt" format="1">
  <advance width="1000"/>
  <outline>
    <contour>
      <point x="525" y="250" type="line"/>
      <point x="525" y="380" type="line"/>
      <point x="520" y="420" type="line"/>
      <point x="515" y="500" type="line"/>
      <point x="485" y="500" type="line"/>
      <point x="480" y="420" type="line"/>
      <point x="475" y="380" type="line"/>
      <point x="475" y="250" type="line"/>
    </contour>
    <contour>
      <point x="480" y="420" type="line"/>
      <point x="470" y="470"/>
      <point x="405" y="510"/>
      <point x="285" y="510" type="curve"/>
      <point x="130" y="510"/>
      <point x="70" y="440"/>
      <point x="70" y="290" type="curve"/>
      <point x="70" y="250" type="line"/>
      <point x="120" y="250" type="line"/>
      <point x="120" y="260" type="line"/>
      <point x="120" y="420"/>
      <point x="165" y="460"/>
      <point x="300" y="460" type="curve" smooth="yes"/>
      <point x="450" y="460"/>
      <point x="475" y="395"/>
      <point x="475" y="260" type="curve"/>
      <point x="475" y="380" type="line"/>
    </contour>
    <contour>
      <point x="525" y="250" type="line"/>
      <point x="475" y="250" type="line"/>
      <point x="475" y="120" type="line"/>
      <point x="480" y="80" type="line"/>
      <point x="485" y="0" type="line"/>
      <point x="515" y="0" type="line"/>
      <point x="520" y="80" type="line"/>
      <point x="525" y="120" type="line"/>
    </contour>
    <contour>
      <point x="480" y="80" type="curve"/>
      <point x="475" y="120" type="line"/>
      <point x="475" y="240" type="line"/>
      <point x="475" y="105"/>
      <point x="450" y="40"/>
      <point x="300" y="40" type="curve" smooth="yes"/>
      <point x="165" y="40"/>
      <point x="120" y="80"/>
      <point x="120" y="240" type="curve"/>
      <point x="120" y="250" type="line"/>
      <point x="70" y="250" type="line"/>
      <point x="70" y="210" type="line"/>
      <point x="70" y="60"/>
      <point x="130" y="-10"/>
      <point x="285" y="-10" type="curve"/>
      <point x="405" y="-10"/>
      <point x="470" y="30"/>
    </contour>
    <contour>
      <point x="505" y="225" type="line"/>
      <point x="895" y="225" type="line"/>
      <point x="895" y="275" type="line"/>
      <point x="505" y="275" type="line"/>
    </contour>
    <contour>
      <point x="710" y="510" type="curve"/>
      <point x="592" y="510"/>
      <point x="530" y="470"/>
      <point x="520" y="420" type="curve"/>
      <point x="525" y="380" type="line"/>
      <point x="525" y="260" type="line"/>
      <point x="525" y="395"/>
      <point x="550" y="460"/>
      <point x="700" y="460" type="curve"/>
      <point x="850" y="460"/>
      <point x="880" y="420"/>
      <point x="880" y="305" type="curve"/>
      <point x="880" y="225" type="line"/>
      <point x="930" y="225" type="line"/>
      <point x="930" y="315" type="line"/>
      <point x="930" y="440"/>
      <point x="881" y="510"/>
    </contour>
    <contour>
      <point x="710" y="-10" type="curve"/>
      <point x="876" y="-10"/>
      <point x="930" y="40"/>
      <point x="930" y="130" type="curve"/>
      <point x="930" y="175" type="line"/>
      <point x="880" y="175" type="line"/>
      <point x="880" y="140" type="line"/>
      <point x="880" y="65"/>
      <point x="850" y="40"/>
      <point x="700" y="40" type="curve"/>
      <point x="550" y="40"/>
      <point x="525" y="105"/>
      <point x="525" y="240" type="curve"/>
      <point x="525" y="120" type="line"/>
      <point x="520" y="80" type="line"/>
      <point x="530" y="30"/>
      <point x="592" y="-10"/>
    </contour>
    <contour>
      <point x="705" y="500" type="move" name="top"/>
    </contour>
  </outline>
</glyph>
<glyph name="b.superior" format="1">
  <advance width="400"/>
  <outline>
    <contour>
      <point x="70" y="400" type="line"/>
      <point x="100" y="400" type="line"/>
      <point x="115" y="450" type="line"/>
      <point x="125" y="450" type="line"/>
      <point x="125" y="650" type="line"/>
      <point x="115" y="650" type="line"/>
      <point x="120" y="677"/>
      <point x="125" y="704"/>
      <point x="125" y="745" type="curve" smooth="yes"/>
      <point x="125" y="800" type="line"/>
      <point x="70" y="800" type="line"/>
    </contour>
    <contour>
      <point x="330" y="560" type="line" smooth="yes"/>
      <point x="330" y="660"/>
      <point x="299" y="710"/>
      <point x="220" y="710" type="curve"/>
      <point x="166" y="710"/>
      <point x="134" y="685"/>
      <point x="125" y="650" type="curve"/>
      <point x="125" y="565" type="line"/>
      <point x="125" y="634"/>
      <point x="150" y="660"/>
      <point x="200" y="660" type="curve" smooth="yes"/>
      <point x="250" y="660"/>
      <point x="275" y="634"/>
      <point x="275" y="565" type="curve"/>
      <point x="275" y="535" type="line" smooth="yes"/>
      <point x="275" y="466"/>
      <point x="250" y="440"/>
      <point x="200" y="440" type="curve" smooth="yes"/>
      <point x="150" y="440"/>
      <point x="125" y="466"/>
      <point x="125" y="535" type="curve"/>
      <point x="125" y="450" type="line"/>
      <point x="134" y="415"/>
      <point x="166" y="390"/>
      <point x="220" y="390" type="curve"/>
      <point x="299" y="390"/>
      <point x="330" y="440"/>
      <point x="330" y="540" type="curve"/>
    </contour>
  </outline>
</glyph>
<glyph name="dotlessj" format="1">
  <advance width="200"/>
  <outline>
    <contour>
      <point x="0" y="-200" type="line"/>
      <point x="85" y="-200"/>
      <point x="125" y="-160"/>
      <point x="125" y="-50" type="curve"/>
      <point x="125" y="500" type="line"/>
      <point x="75" y="500" type="line"/>
      <point x="75" y="-50" type="line" smooth="yes"/>
      <point x="75" y="-130"/>
      <point x="55" y="-150"/>
      <point x="0" y="-150" type="curve"/>
    </contour>
  </outline>
</glyph>
<glyph name="f.superior" format="1">
  <advance width="200"/>
  <outline>
    <contour>
      <point x="40" y="655" type="line"/>
      <point x="165" y="655" type="line"/>
      <point x="165" y="700" type="line"/>
      <point x="40" y="700" type="line"/>
    </contour>
    <contour>
      <point x="125" y="400" type="line"/>
      <point x="125" y="570" type="line"/>
      <point x="120" y="655" type="line"/>
      <point x="120" y="700" type="line"/>
      <point x="120" y="741"/>
      <point x="134" y="750"/>
      <point x="165" y="750" type="curve"/>
      <point x="165" y="800" type="line"/>
      <point x="150" y="800" type="line" smooth="yes"/>
      <point x="95" y="800"/>
      <point x="75" y="775"/>
      <point x="75" y="695" type="curve" smooth="yes"/>
      <point x="75" y="400" type="line"/>
    </contour>
  </outline>
</glyph>
<glyph name="k.superior" format="1">
  <advance width="400"/>
  <outline>
    <contour>
      <point x="75" y="400" type="line"/>
      <point x="125" y="400" type="line"/>
      <point x="125" y="800" type="line"/>
      <point x="75" y="800" type="line"/>
    </contour>
    <contour>
      <point x="330" y="400" type="line"/>
      <point x="325" y="420" type="line" smooth="yes"/>
      <point x="309" y="485"/>
      <point x="282" y="526"/>
      <point x="210" y="545" type="curve"/>
      <point x="210" y="555" type="line"/>
      <point x="282" y="574"/>
      <point x="308" y="611"/>
      <point x="325" y="680" type="curve" smooth="yes"/>
      <point x="330" y="700" type="line"/>
      <point x="270" y="700" type="line"/>
      <point x="265" y="680" type="line" smooth="yes"/>
      <point x="247" y="610"/>
      <point x="225" y="575"/>
      <point x="125" y="575" type="curve"/>
      <point x="125" y="525" type="line"/>
      <point x="225" y="525"/>
      <point x="247" y="490"/>
      <point x="265" y="420" type="curve" smooth="yes"/>
      <point x="270" y="400" type="line"/>
    </contour>
  </outline>
</glyph>
<glyph name="l.superior" format="1">
  <advance width="200"/>
  <outline>
    <contour>
      <point x="75" y="400" type="line"/>
      <point x="125" y="400" type="line"/>
      <point x="125" y="800" type="line"/>
      <point x="75" y="800" type="line"/>
    </contour>
  </outline>
</glyph>
<glyph name="o.superior" format="1">
  <advance width="400"/>
  <outline>
    <contour>
      <point x="285" y="550" type="curve"/>
      <point x="285" y="470"/>
      <point x="261" y="440"/>
      <point x="200" y="440" type="curve"/>
      <point x="139" y="440"/>
      <point x="115" y="470"/>
      <point x="115" y="550" type="curve"/>
      <point x="115" y="630"/>
      <point x="139" y="660"/>
      <point x="200" y="660" type="curve"/>
      <point x="261" y="660"/>
      <point x="285" y="630"/>
    </contour>
    <contour>
      <point x="335" y="550" type="curve"/>
      <point x="335" y="660"/>
      <point x="284" y="710"/>
      <point x="200" y="710" type="curve"/>
      <point x="116" y="710"/>
      <point x="65" y="660"/>
      <point x="65" y="550" type="curve"/>
      <point x="65" y="440"/>
      <point x="116" y="390"/>
      <point x="200" y="390" type="curve"/>
      <point x="284" y="390"/>
      <point x="335" y="440"/>
    </contour>
  </outline>
</glyph>
<glyph name="r.superior" format="1">
  <advance width="400"/>
  <outline>
    <contour>
      <point x="75" y="400" type="line"/>
      <point x="125" y="400" type="line"/>
      <point x="125" y="650" type="line"/>
      <point x="115" y="650" type="line"/>
      <point x="105" y="700" type="line"/>
      <point x="75" y="700" type="line"/>
    </contour>
    <contour>
      <point x="125" y="650" type="curve"/>
      <point x="125" y="565" type="line"/>
      <point x="125" y="628"/>
      <point x="150" y="650"/>
      <point x="200" y="650" type="curve" smooth="yes"/>
      <point x="350" y="650" type="line"/>
      <point x="350" y="700" type="line" smooth="yes"/>
      <point x="215" y="700" type="line" smooth="yes"/>
      <point x="165" y="700"/>
      <point x="133" y="680"/>
    </contour>
  </outline>
</glyph>
<glyph name="s.superior" format="1">
  <advance width="400"/>
  <outline>
    <contour>
      <point x="130" y="620" type="curve" smooth="yes"/>
      <point x="130" y="653"/>
      <point x="155" y="665"/>
      <point x="200" y="665" type="curve" smooth="yes"/>
      <point x="250" y="665"/>
      <point x="270" y="641"/>
      <point x="270" y="605" type="curve"/>
      <point x="270" y="600" type="line"/>
      <point x="320" y="600" type="line"/>
      <point x="320" y="605" type="line"/>
      <point x="320" y="675"/>
      <point x="280" y="710"/>
      <point x="200" y="710" type="curve" smooth="yes"/>
      <point x="134" y="710"/>
      <point x="80" y="680"/>
      <point x="80" y="620" type="curve" smooth="yes"/>
      <point x="80" y="565"/>
      <point x="110" y="540"/>
      <point x="200" y="530" type="curve" smooth="yes"/>
      <point x="255" y="525"/>
      <point x="275" y="511"/>
      <point x="275" y="480" type="curve" smooth="yes"/>
      <point x="275" y="447"/>
      <point x="245" y="435"/>
      <point x="200" y="435" type="curve" smooth="yes"/>
      <point x="145" y="435"/>
      <point x="125" y="459"/>
      <point x="125" y="495" type="curve"/>
      <point x="125" y="500" type="line"/>
      <point x="75" y="500" type="line"/>
      <point x="75" y="495" type="line"/>
      <point x="75" y="425"/>
      <point x="117" y="390"/>
      <point x="200" y="390" type="curve" smooth="yes"/>
      <point x="267" y="390"/>
      <point x="325" y="422"/>
      <point x="325" y="480" type="curve"/>
      <point x="325" y="547"/>
      <point x="285" y="565"/>
      <point x="200" y="575" type="curve" smooth="yes"/>
      <point x="145" y="580"/>
      <point x="130" y="588"/>
    </contour>
  </outline>
</glyph>
<glyph name="six.sup" format="1">
  <advance width="400"/>
  <outline>
    <contour>
      <point x="125" y="560" type="line"/>
      <point x="125" y="580" type="line" smooth="yes"/>
      <point x="125" y="660"/>
      <point x="165" y="660"/>
      <point x="200" y="660" type="curve" smooth="yes"/>
      <point x="240" y="660"/>
      <point x="275" y="660"/>
      <point x="275" y="595" type="curve"/>
      <point x="325" y="595" type="line"/>
      <point x="325" y="675"/>
      <point x="275" y="710"/>
      <point x="200" y="710" type="curve" smooth="yes"/>
      <point x="135" y="710"/>
      <point x="75" y="675"/>
      <point x="75" y="580" type="curve"/>
      <point x="75" y="505" type="line"/>
      <point x="75" y="421"/>
      <point x="120" y="390"/>
      <point x="210" y="390" type="curve"/>
      <point x="285" y="390"/>
      <point x="335" y="416"/>
      <point x="335" y="485" type="curve"/>
      <point x="335" y="556"/>
      <point x="273" y="575"/>
      <point x="210" y="575" type="curve" smooth="yes"/>
      <point x="176" y="575"/>
      <point x="155" y="567"/>
      <point x="135" y="555" type="curve"/>
    </contour>
    <contour>
      <point x="125" y="485" type="curve" smooth="yes"/>
      <point x="125" y="519"/>
      <point x="150" y="530"/>
      <point x="200" y="530" type="curve" smooth="yes"/>
      <point x="255" y="530"/>
      <point x="285" y="519"/>
      <point x="285" y="485" type="curve" smooth="yes"/>
      <point x="285" y="454"/>
      <point x="260" y="440"/>
      <point x="210" y="440" type="curve"/>
      <point x="150" y="440"/>
      <point x="125" y="454"/>
    </contour>
  </outline>
</glyph>
<glyph name="t.superior" format="1">
  <advance width="400"/>
  <outline>
    <contour>
      <point x="350" y="450" type="line"/>
      <point x="190" y="450" type="line"/>
      <point x="150" y="450"/>
      <point x="125" y="471"/>
      <point x="125" y="525" type="curve"/>
      <point x="125" y="650" type="line"/>
      <point x="350" y="650" type="line"/>
      <point x="350" y="700" type="line"/>
      <point x="125" y="700" type="line"/>
      <point x="125" y="800" type="line"/>
      <point x="95" y="800" type="line"/>
      <point x="75" y="690" type="line"/>
      <point x="75" y="535" type="line"/>
      <point x="75" y="445"/>
      <point x="117" y="400"/>
      <point x="200" y="400" type="curve"/>
      <point x="350" y="400" type="line"/>
    </contour>
  </outline>
</glyph>
